# This file uses centimeters as units for non-parametric coordinates.

g default
v 123.100899 -0.118124 -21.705912
v 117.461533 -0.118124 -42.752399
v 108.253151 -0.118124 -62.499878
v 95.755547 -0.118124 -80.348328
v 80.348465 -0.118124 -95.755432
v 62.500031 -0.118124 -108.253059
v 42.752563 -0.118124 -117.461472
v 21.706083 -0.118124 -123.100876
v 0.000075 -0.118124 -124.999924
v -21.705940 -0.118124 -123.100914
v -42.752434 -0.118124 -117.461540
v -62.499916 -0.118124 -108.253151
v -80.348366 -0.118124 -95.755539
v -95.755463 -0.118124 -80.348450
v -108.253090 -0.118124 -62.500008
v -117.461494 -0.118124 -42.752537
v -123.100899 -0.118124 -21.706055
v -124.999939 -0.118124 -0.000041
v -123.100922 -0.118124 21.705975
v -117.461548 -0.118124 42.752468
v -108.253159 -0.118124 62.499950
v -95.755547 -0.118124 80.348404
v -80.348450 -0.118124 95.755501
v -62.500000 -0.118124 108.253128
v -42.752525 -0.118124 117.461540
v -21.706038 -0.118124 123.100937
v -0.000019 -0.118124 124.999969
v 21.705999 -0.118124 123.100945
v 42.752499 -0.118124 117.461563
v 62.499981 -0.118124 108.253166
v 80.348434 -0.118124 95.755547
v 95.755531 -0.118124 80.348450
v 108.253159 -0.118124 62.500000
v 117.461571 -0.118124 42.752518
v 123.100967 -0.118124 21.706024
v 125.000000 -0.118124 0.000000
v 123.100899 0.118124 -21.705912
v 117.461533 0.118124 -42.752399
v 108.253151 0.118124 -62.499878
v 95.755547 0.118124 -80.348328
v 80.348465 0.118124 -95.755432
v 62.500031 0.118124 -108.253059
v 42.752563 0.118124 -117.461472
v 21.706083 0.118124 -123.100876
v 0.000075 0.118124 -124.999924
v -21.705940 0.118124 -123.100914
v -42.752434 0.118124 -117.461540
v -62.499916 0.118124 -108.253151
v -80.348366 0.118124 -95.755539
v -95.755463 0.118124 -80.348450
v -108.253090 0.118124 -62.500008
v -117.461494 0.118124 -42.752537
v -123.100899 0.118124 -21.706055
v -124.999939 0.118124 -0.000041
v -123.100922 0.118124 21.705975
v -117.461548 0.118124 42.752468
v -108.253159 0.118124 62.499950
v -95.755547 0.118124 80.348404
v -80.348450 0.118124 95.755501
v -62.500000 0.118124 108.253128
v -42.752525 0.118124 117.461540
v -21.706038 0.118124 123.100937
v -0.000019 0.118124 124.999969
v 21.705999 0.118124 123.100945
v 42.752499 0.118124 117.461563
v 62.499981 0.118124 108.253166
v 80.348434 0.118124 95.755547
v 95.755531 0.118124 80.348450
v 108.253159 0.118124 62.500000
v 117.461571 0.118124 42.752518
v 123.100967 0.118124 21.706024
v 125.000000 0.118124 0.000000
v 0.000000 -0.118124 0.000000
v 0.000000 0.118124 0.000000
vt 0.653876 0.129118
vt 0.646827 0.102809
vt 0.635316 0.078125
vt 0.619694 0.055815
vt 0.600435 0.036556
vt 0.578125 0.020934
vt 0.553441 0.009423
vt 0.527133 0.002374
vt 0.500000 0.000000
vt 0.472867 0.002374
vt 0.446559 0.009423
vt 0.421875 0.020934
vt 0.399565 0.036556
vt 0.380306 0.055814
vt 0.364684 0.078125
vt 0.353173 0.102809
vt 0.346124 0.129117
vt 0.343750 0.156250
vt 0.346124 0.183383
vt 0.353173 0.209691
vt 0.364684 0.234375
vt 0.380306 0.256686
vt 0.399564 0.275944
vt 0.421875 0.291566
vt 0.446559 0.303077
vt 0.472867 0.310126
vt 0.500000 0.312500
vt 0.527133 0.310126
vt 0.553441 0.303077
vt 0.578125 0.291566
vt 0.600436 0.275944
vt 0.619694 0.256686
vt 0.635316 0.234375
vt 0.646827 0.209691
vt 0.653876 0.183383
vt 0.656250 0.156250
vt 0.653876 0.816617
vt 0.646827 0.790309
vt 0.635316 0.765625
vt 0.619694 0.743315
vt 0.600435 0.724056
vt 0.578125 0.708434
vt 0.553441 0.696923
vt 0.527133 0.689874
vt 0.500000 0.687500
vt 0.472867 0.689874
vt 0.446559 0.696923
vt 0.421875 0.708434
vt 0.399565 0.724056
vt 0.380306 0.743315
vt 0.364684 0.765625
vt 0.353173 0.790309
vt 0.346124 0.816617
vt 0.343750 0.843750
vt 0.346124 0.870883
vt 0.353173 0.897191
vt 0.364684 0.921875
vt 0.380306 0.944185
vt 0.399564 0.963444
vt 0.421875 0.979066
vt 0.446559 0.990577
vt 0.472867 0.997626
vt 0.500000 1.000000
vt 0.527133 0.997626
vt 0.553441 0.990577
vt 0.578125 0.979066
vt 0.600436 0.963444
vt 0.619694 0.944186
vt 0.635316 0.921875
vt 0.646827 0.897191
vt 0.653876 0.870883
vt 0.656250 0.843750
vt 0.500000 0.150000
vt 0.500000 0.837500
vn 0.000000 -1.000000 0.000000
vn 0.000000 -1.000000 0.000000
vn 0.000000 -1.000000 0.000000
vn 0.000000 -1.000000 0.000000
vn 0.000000 -1.000000 -0.000000
vn 0.000000 -1.000000 -0.000000
vn 0.000000 -1.000000 -0.000000
vn 0.000000 -1.000000 0.000000
vn 0.000000 -1.000000 0.000000
vn 0.000000 -1.000000 0.000000
vn 0.000000 -1.000000 0.000000
vn 0.000000 -1.000000 0.000000
vn 0.000000 -1.000000 0.000000
vn 0.000000 -1.000000 0.000000
vn 0.000000 -1.000000 -0.000000
vn 0.000000 -1.000000 -0.000000
vn 0.000000 -1.000000 -0.000000
vn 0.000000 -1.000000 0.000000
vn 0.000000 -1.000000 -0.000000
vn 0.000000 -1.000000 0.000000
vn 0.000000 -1.000000 0.000000
vn 0.000000 -1.000000 -0.000000
vn 0.000000 -1.000000 -0.000000
vn 0.000000 -1.000000 0.000000
vn 0.000000 -1.000000 0.000000
vn 0.000000 -1.000000 -0.000000
vn 0.000000 -1.000000 -0.000000
vn 0.000000 -1.000000 0.000000
vn 0.000000 -1.000000 0.000000
vn 0.000000 -1.000000 0.000000
vn 0.000000 -1.000000 0.000000
vn 0.000000 -1.000000 0.000000
vn 0.000000 -1.000000 0.000000
vn 0.000000 -1.000000 0.000000
vn 0.000000 -1.000000 -0.000000
vn 0.000000 -1.000000 -0.000000
vn 0.000000 -1.000000 0.000000
vn 0.000000 1.000000 0.000000
vn 0.000000 1.000000 0.000000
vn 0.000000 1.000000 0.000000
vn 0.000000 1.000000 0.000000
vn 0.000000 1.000000 0.000000
vn 0.000000 1.000000 -0.000000
vn 0.000000 1.000000 -0.000000
vn 0.000000 1.000000 0.000000
vn 0.000000 1.000000 0.000000
vn 0.000000 1.000000 -0.000000
vn 0.000000 1.000000 -0.000000
vn 0.000000 1.000000 0.000000
vn 0.000000 1.000000 0.000000
vn 0.000000 1.000000 0.000000
vn 0.000000 1.000000 -0.000000
vn 0.000000 1.000000 0.000000
vn 0.000000 1.000000 0.000000
vn 0.000000 1.000000 0.000000
vn 0.000000 1.000000 -0.000000
vn 0.000000 1.000000 0.000000
vn 0.000000 1.000000 0.000000
vn 0.000000 1.000000 -0.000000
vn 0.000000 1.000000 -0.000000
vn 0.000000 1.000000 0.000000
vn 0.000000 1.000000 0.000000
vn 0.000000 1.000000 -0.000000
vn 0.000000 1.000000 0.000000
vn 0.000000 1.000000 0.000000
vn 0.000000 1.000000 0.000000
vn 0.000000 1.000000 0.000000
vn 0.000000 1.000000 0.000000
vn 0.000000 1.000000 0.000000
vn 0.000000 1.000000 0.000000
vn 0.000000 1.000000 0.000000
vn 0.000000 1.000000 -0.000000
vn 0.000000 1.000000 -0.000000
vn 0.000000 1.000000 0.000000
s 1
g systemCylinder
f 2/2/1 1/1/2 73/73/3
f 3/3/4 2/2/1 73/73/3
f 4/4/5 3/3/4 73/73/3
f 5/5/6 4/4/5 73/73/3
f 6/6/7 5/5/6 73/73/3
f 7/7/8 6/6/7 73/73/3
f 8/8/9 7/7/8 73/73/3
f 9/9/10 8/8/9 73/73/3
f 10/10/11 9/9/10 73/73/3
f 11/11/12 10/10/11 73/73/3
f 12/12/13 11/11/12 73/73/3
f 13/13/14 12/12/13 73/73/3
f 14/14/15 13/13/14 73/73/3
f 15/15/16 14/14/15 73/73/3
f 16/16/17 15/15/16 73/73/3
f 17/17/18 16/16/17 73/73/3
f 18/18/19 17/17/18 73/73/3
f 19/19/20 18/18/19 73/73/3
f 20/20/21 19/19/20 73/73/3
f 21/21/22 20/20/21 73/73/3
f 22/22/23 21/21/22 73/73/3
f 23/23/24 22/22/23 73/73/3
f 24/24/25 23/23/24 73/73/3
f 25/25/26 24/24/25 73/73/3
f 26/26/27 25/25/26 73/73/3
f 27/27/28 26/26/27 73/73/3
f 28/28/29 27/27/28 73/73/3
f 29/29/30 28/28/29 73/73/3
f 30/30/31 29/29/30 73/73/3
f 31/31/32 30/30/31 73/73/3
f 32/32/33 31/31/32 73/73/3
f 33/33/34 32/32/33 73/73/3
f 34/34/35 33/33/34 73/73/3
f 35/35/36 34/34/35 73/73/3
f 36/36/37 35/35/36 73/73/3
f 1/1/2 36/36/37 73/73/3
s 2
f 37/71/38 38/70/39 74/74/40
f 38/70/39 39/69/41 74/74/40
f 39/69/41 40/68/42 74/74/40
f 40/68/42 41/67/43 74/74/40
f 41/67/43 42/66/44 74/74/40
f 42/66/44 43/65/45 74/74/40
f 43/65/45 44/64/46 74/74/40
f 44/64/46 45/63/47 74/74/40
f 45/63/47 46/62/48 74/74/40
f 46/62/48 47/61/49 74/74/40
f 47/61/49 48/60/50 74/74/40
f 48/60/50 49/59/51 74/74/40
f 49/59/51 50/58/52 74/74/40
f 50/58/52 51/57/53 74/74/40
f 51/57/53 52/56/54 74/74/40
f 52/56/54 53/55/55 74/74/40
f 53/55/55 54/54/56 74/74/40
f 54/54/56 55/53/57 74/74/40
f 55/53/57 56/52/58 74/74/40
f 56/52/58 57/51/59 74/74/40
f 57/51/59 58/50/60 74/74/40
f 58/50/60 59/49/61 74/74/40
f 59/49/61 60/48/62 74/74/40
f 60/48/62 61/47/63 74/74/40
f 61/47/63 62/46/64 74/74/40
f 62/46/64 63/45/65 74/74/40
f 63/45/65 64/44/66 74/74/40
f 64/44/66 65/43/67 74/74/40
f 65/43/67 66/42/68 74/74/40
f 66/42/68 67/41/69 74/74/40
f 67/41/69 68/40/70 74/74/40
f 68/40/70 69/39/71 74/74/40
f 69/39/71 70/38/72 74/74/40
f 70/38/72 71/37/73 74/74/40
f 71/37/73 72/72/74 74/74/40
f 72/72/74 37/71/38 74/74/40
